<svg xmlns="http://www.w3.org/2000/svg" viewBox="0 0 400 400">
  <defs>
    <linearGradient id="binGrad" x1="0" y1="0" x2="1" y2="1">
      <stop offset="0%" stop-color="#0e7c86"/>
      <stop offset="100%" stop-color="#8bc34a"/>
    </linearGradient>
  </defs>
  <rect width="400" height="400" fill="#eef6f4"/>
  <rect x="0" y="330" width="400" height="70" fill="#dcece7"/>
  <ellipse cx="200" cy="358" rx="95" ry="14" fill="#00000014"/>

  <!-- bin body -->
  <rect x="140" y="185" width="120" height="175" rx="10" fill="url(#binGrad)"/>

  <!-- shine highlight -->
  <path d="M160 195 L178 195 L155 355 L145 355 Z" fill="#ffffff" opacity="0.25"/>

  <!-- lid, closed -->
  <rect x="130" y="150" width="140" height="35" rx="8" fill="#ffffff"/>
  <rect x="188" y="132" width="24" height="12" rx="4" fill="#0e7c86"/>

  <!-- sparkles -->
  <g fill="#f5c451">
    <path d="M100 150 l4 10 10 4 -10 4 -4 10 -4 -10 -10 -4 10 -4z"/>
    <path d="M305 210 l3 8 8 3 -8 3 -3 8 -3 -8 -8 -3 8 -3z"/>
    <path d="M290 140 l2.5 6 6 2.5 -6 2.5 -2.5 6 -2.5 -6 -6 -2.5 6 -2.5z"/>
  </g>

  <!-- wheels -->
  <circle cx="165" cy="362" r="10" fill="#0a5b63"/>
  <circle cx="235" cy="362" r="10" fill="#0a5b63"/>
</svg>
