<svg xmlns="http://www.w3.org/2000/svg" viewBox="0 0 24 24">
  <defs>
    <linearGradient id="g" x1="0" y1="0" x2="1" y2="1">
      <stop offset="0%" stop-color="#0e7c86"/>
      <stop offset="100%" stop-color="#8bc34a"/>
    </linearGradient>
  </defs>
  <rect width="24" height="24" rx="6" fill="url(#g)"/>
  <path fill="#fff" d="M10.32 5.28h3.36a0.96 0.96 0 0 1 0.96 0.96v0.96h-5.28v-0.96a0.96 0.96 0 0 1 0.96-0.96z"/>
  <path fill="#fff" d="M6 7.2h12a1.2 1.2 0 0 1 0 2.4h-0.36l-0.96 8.64a1.44 1.44 0 0 1-1.44 1.32h-6.48a1.44 1.44 0 0 1-1.44-1.32l-0.96-8.64h-0.36a1.2 1.2 0 0 1 0-2.4z"/>
</svg>
